<svg  class="icon" viewBox="0 0 1024 1024" version="1.1" xmlns="http://www.w3.org/2000/svg" p-id="2845" width="200" height="200"><path d="M494.848 308.679111L435.854222 426.666667l66.417778 132.835555 76.344889-38.115555L531.256889 426.666667l54.784-109.568-27.278222-94.862223A213.333333 213.333333 0 0 1 938.666667 355.555556c0 147.484444-140.373333 317.155556-426.666667 503.893333C225.706667 672.739556 85.333333 503.04 85.333333 355.555556a213.333333 213.333333 0 0 1 320.256-184.661334l42.837334-73.784889A297.443556 297.443556 0 0 0 298.666667 56.888889C133.717333 56.888889 0 190.606222 0 355.555556c0 188.842667 165.006222 383.857778 489.045333 590.620444l22.954667 14.648889 22.954667-14.648889C858.993778 739.384889 1024 544.426667 1024 355.555556 1024 190.606222 890.282667 56.888889 725.333333 56.888889a298.382222 298.382222 0 0 0-248.888889 133.489778l-10.894222 16.440889 29.297778 101.859555z" fill="#3B3F47" p-id="2846"></path></svg>
