<svg  class="icon" viewBox="0 0 1024 1024" version="1.1" xmlns="http://www.w3.org/2000/svg" p-id="807" width="200" height="200"><path d="M895.318 192H128.682C93.008 192 64 220.968 64 256.616v510.698C64 802.986 93.008 832 128.682 832h766.636C930.992 832 960 802.986 960 767.312V256.616C960 220.968 930.992 192 895.318 192zM568.046 704H455.95V512l-84.08 107.756L287.826 512v192H175.738V320h112.088l84.044 135.96L455.95 320h112.096v384z m167.314 0L596.09 512h84V320h112.086v192h84.054L735.324 704h0.036z" p-id="808"></path></svg>
